<svg xmlns="http://www.w3.org/2000/svg" width="200" height="200" viewBox="0 0 200 200" stroke="#e0dcd3" stroke-width="4" stroke-linejoin="round" stroke-linecap="square" fill="none">
  <!-- Briefcase -->
  <path d="M40 70h60v50h-60z M60 70v-20h20v20 M40 90h60 M65 90h10v10h-10z" />
  <!-- Growth Chart -->
  <path d="M130 150h50 M130 150v-40 M140 140l10-15 10 5 10-20 M170 110l-10-5 M170 110v10" />
  <!-- Hourglass -->
  <path d="M140 40h40 M140 90h40 M145 40l15 20 15-20 M145 90l15-20 15 20" />
  <!-- Gear -->
  <path d="M50 140h20v-10h10v10h20v10h10v10h-10v20h-10v10h-10v-10h-20v10h-10v-10h-10v-20h10v-10z M65 155h10v10h-10z" />
</svg>
