<svg xmlns="http://www.w3.org/2000/svg" width="200" height="200" viewBox="0 0 200 200" stroke="#e0dcd3" stroke-width="4" stroke-linejoin="round" stroke-linecap="square" fill="none">
  <!-- Shield -->
  <path d="M30 40h40v30l-20 20-20-20z" />
  <!-- Lightning Bolt -->
  <path d="M140 40l-20 40h30l-30 50 10-40h-30z" />
  <!-- Checkmark -->
  <path d="M140 150l10 10 30-40 M125 150h5 M170 130l5-5" />
  <!-- Gear -->
  <path d="M50 130h20v-10h10v10h20v10h10v10h-10v20h-10v10h-10v-10h-20v10h-10v-10h-10v-20h10v-10z M65 145h10v10h-10z" />
</svg>
