<svg xmlns="http://www.w3.org/2000/svg" width="200" height="200" viewBox="0 0 200 200" stroke="#e0dcd3" stroke-width="4" stroke-linejoin="round" stroke-linecap="square" fill="none">
  <!-- Folder -->
  <path d="M30 40h20l10 10h40v40h-70z" />
  <path d="M40 60h40 M40 70h40" />
  <!-- Floppy Disk -->
  <path d="M130 30h40v50h-50v-40z M140 30v15h20v-15 M140 60h20v20h-20z" />
  <!-- Rocket -->
  <path d="M140 140l20-40 10 10-40 20z M150 110l20-20 10 10-20 20z M140 140l-15 15 M155 155l15-15 M120 160l5-5 M160 180l-5-5" />
  <!-- Puzzle Piece -->
  <path d="M40 130h20v-10h10v10h10v40h-10v10h-10v-10h-20z M55 145h10 M55 155h10" />
</svg>
